<svg width="22" height="22" viewBox="0 0 22 22" fill="none" xmlns="http://www.w3.org/2000/svg">
<path d="M10.8098 1.08541C10.8697 0.901148 11.1303 0.901148 11.1902 1.08541L13.6493 8.6536C13.676 8.736 13.7528 8.7918 13.8395 8.7918H21.7971C21.9909 8.7918 22.0714 9.03972 21.9147 9.1536L15.4768 13.831C15.4067 13.8819 15.3774 13.9722 15.4042 14.0546L17.8632 21.6228C17.9231 21.8071 17.7122 21.9603 17.5554 21.8464L11.1176 17.169C11.0475 17.1181 10.9525 17.1181 10.8824 17.169L4.44456 21.8464C4.28781 21.9603 4.07692 21.8071 4.13679 21.6228L6.59584 14.0546C6.62262 13.9722 6.59329 13.8819 6.52319 13.831L0.0853021 9.1536C-0.0714406 9.03972 0.00911415 8.7918 0.202859 8.7918H8.16052C8.24717 8.7918 8.32396 8.736 8.35073 8.6536L10.8098 1.08541Z" fill="#EC0000"/>
</svg>
